<svg width="155" height="30" viewBox="0 0 155 30" fill="none" xmlns="http://www.w3.org/2000/svg">
<path d="M148.792 8.5C148.792 8.08333 148.892 7.70486 149.094 7.36458C149.295 7.02431 149.566 6.75347 149.906 6.55208C150.25 6.34722 150.628 6.24653 151.042 6.25C151.403 6.24653 151.734 6.32292 152.036 6.47917C152.342 6.63194 152.594 6.84201 152.792 7.10938C152.993 7.37326 153.118 7.67361 153.167 8.01042H152.25C152.198 7.75347 152.056 7.54167 151.823 7.375C151.594 7.20833 151.333 7.125 151.042 7.125C150.792 7.125 150.562 7.1875 150.354 7.3125C150.146 7.43403 149.979 7.59896 149.854 7.80729C149.733 8.01562 149.67 8.24653 149.667 8.5C149.67 8.75 149.733 8.97917 149.854 9.1875C149.979 9.39583 150.146 9.56076 150.354 9.68229C150.562 9.80382 150.792 9.86458 151.042 9.86458C151.333 9.86806 151.58 9.78646 151.781 9.61979C151.986 9.45312 152.115 9.23958 152.167 8.97917H153.083C153.038 9.31597 152.922 9.61806 152.734 9.88542C152.547 10.1493 152.307 10.3594 152.016 10.5156C151.727 10.6684 151.403 10.7465 151.042 10.75C150.628 10.7465 150.25 10.6441 149.906 10.4427C149.566 10.2413 149.295 9.97049 149.094 9.63021C148.892 9.28993 148.792 8.91319 148.792 8.5ZM151 12.5C150.451 12.5 149.934 12.3958 149.448 12.1875C148.965 11.9792 148.54 11.6927 148.172 11.3281C147.804 10.9601 147.516 10.5347 147.307 10.0521C147.102 9.56944 147 9.05208 147 8.5C147.003 7.94792 147.109 7.43056 147.318 6.94792C147.526 6.46181 147.812 6.03646 148.177 5.67188C148.545 5.30382 148.97 5.01736 149.453 4.8125C149.936 4.60417 150.451 4.5 151 4.5C151.556 4.5 152.075 4.60417 152.557 4.8125C153.04 5.01736 153.463 5.30382 153.828 5.67188C154.196 6.03646 154.483 6.46181 154.687 6.94792C154.896 7.43056 155 7.94792 155 8.5C155.003 9.05208 154.901 9.56944 154.693 10.0521C154.488 10.5347 154.201 10.9601 153.833 11.3281C153.469 11.6927 153.043 11.9792 152.557 12.1875C152.075 12.3958 151.556 12.5 151 12.5ZM151 11.6146C151.434 11.6146 151.84 11.5347 152.219 11.375C152.597 11.2118 152.929 10.9878 153.213 10.7031C153.502 10.4184 153.726 10.0885 153.885 9.71354C154.045 9.33507 154.125 8.93056 154.125 8.5C154.125 8.06597 154.043 7.66146 153.88 7.28646C153.717 6.90799 153.493 6.57639 153.208 6.29167C152.924 6.00347 152.592 5.77951 152.213 5.61979C151.838 5.4566 151.434 5.375 151 5.375C150.573 5.375 150.17 5.4566 149.792 5.61979C149.417 5.77951 149.087 6.00347 148.802 6.29167C148.517 6.57639 148.293 6.90799 148.13 7.28646C147.967 7.66493 147.885 8.06944 147.885 8.5C147.882 8.92708 147.96 9.32986 148.12 9.70833C148.283 10.0833 148.507 10.4149 148.792 10.7031C149.08 10.9878 149.411 11.2118 149.786 11.375C150.165 11.5347 150.569 11.6146 151 11.6146Z" fill="white"/>
<path fill-rule="evenodd" clip-rule="evenodd" d="M15.5 12.2508L15.5 1.5H12.5L12.5 11.9057L6.44525 5.85096L4.32393 7.97228L10.3517 14H0V17H10.7508L4.89642 22.8543L7.01774 24.9757L12.5 19.4934L12.5 29.5H15.5L15.5 19.1484L21.0769 24.7253L23.1982 22.604L17.5943 17H28V14H17.9934L23.7707 8.22266L21.6494 6.10134L15.5 12.2508Z" fill="#FFF600"/>
<path d="M37 8.79458V6.5H50.3895V8.79458H45.0059V24.2147H42.4069V8.79458H37Z" fill="white"/>
<path d="M55.7151 24.4881C54.5007 24.4881 53.4371 24.2028 52.5244 23.6321C51.6194 23.0614 50.9155 22.2609 50.4127 21.2305C49.9177 20.2001 49.6701 19.0033 49.6701 17.64C49.6701 16.2609 49.9177 15.0561 50.4127 14.0258C50.9155 12.9875 51.6194 12.183 52.5244 11.6123C53.4371 11.0416 54.5007 10.7563 55.7151 10.7563C56.9373 10.7563 58.0009 11.0416 58.9059 11.6123C59.8109 12.183 60.5148 12.9875 61.0176 14.0258C61.5203 15.0561 61.7717 16.2609 61.7717 17.64C61.7717 19.0033 61.5203 20.2001 61.0176 21.2305C60.5148 22.2609 59.8109 23.0614 58.9059 23.6321C58.0009 24.2028 56.9373 24.4881 55.7151 24.4881ZM55.7151 22.3124C56.5119 22.3124 57.1693 22.0984 57.6876 21.6704C58.2058 21.2424 58.5887 20.6757 58.8363 19.9703C59.0915 19.2569 59.2192 18.4802 59.2192 17.64C59.2192 16.784 59.0915 15.9993 58.8363 15.286C58.5887 14.5727 58.2058 14.002 57.6876 13.574C57.1693 13.146 56.5119 12.932 55.7151 12.932C54.9262 12.932 54.2725 13.146 53.7543 13.574C53.2438 14.002 52.8609 14.5727 52.6056 15.286C52.3504 15.9993 52.2227 16.784 52.2227 17.64C52.2227 18.4802 52.3504 19.2569 52.6056 19.9703C52.8609 20.6757 53.2438 21.2424 53.7543 21.6704C54.2725 22.0984 54.9262 22.3124 55.7151 22.3124Z" fill="white"/>
<path d="M68.4201 24.4762C67.3681 24.4762 66.4322 24.2028 65.6122 23.6559C64.7923 23.1011 64.1503 22.3124 63.6862 21.29C63.2221 20.2596 62.99 19.031 62.99 17.6044C62.99 16.1618 63.2259 14.9293 63.6978 13.9069C64.1696 12.8844 64.8155 12.1037 65.6354 11.5647C66.4554 11.0258 67.3836 10.7563 68.4201 10.7563C69.2323 10.7563 69.882 10.895 70.3693 11.1724C70.8644 11.4419 71.2473 11.7589 71.518 12.1235C71.7965 12.4881 72.0092 12.8091 72.1561 13.0865H72.307V6.5H74.8132V24.2147H72.365V22.146H72.1561C72.0092 22.4234 71.7926 22.7444 71.5064 23.109C71.2202 23.4736 70.8296 23.7946 70.3345 24.072C69.8472 24.3415 69.2091 24.4762 68.4201 24.4762ZM68.9654 22.2768C69.6925 22.2768 70.3075 22.0786 70.8102 21.6823C71.313 21.286 71.692 20.7351 71.9473 20.0297C72.2103 19.3243 72.3418 18.5079 72.3418 17.5806C72.3418 16.6532 72.2142 15.8448 71.9589 15.1552C71.7036 14.4577 71.3246 13.9188 70.8218 13.5383C70.3191 13.1499 69.7002 12.9557 68.9654 12.9557C68.2074 12.9557 67.577 13.1579 67.0742 13.5621C66.5714 13.9663 66.1924 14.5172 65.9371 15.2147C65.6818 15.9122 65.5542 16.7008 65.5542 17.5806C65.5542 18.4683 65.6818 19.2688 65.9371 19.9822C66.1924 20.6876 66.5714 21.2464 67.0742 21.6585C67.5847 22.0707 68.2151 22.2768 68.9654 22.2768Z" fill="white"/>
<path d="M82.6798 24.4881C81.4654 24.4881 80.4018 24.2028 79.489 23.6321C78.584 23.0614 77.8801 22.2609 77.3774 21.2305C76.8823 20.2001 76.6348 19.0033 76.6348 17.64C76.6348 16.2609 76.8823 15.0561 77.3774 14.0258C77.8801 12.9875 78.584 12.183 79.489 11.6123C80.4018 11.0416 81.4654 10.7563 82.6798 10.7563C83.9019 10.7563 84.9655 11.0416 85.8705 11.6123C86.7755 12.183 87.4794 12.9875 87.9822 14.0258C88.485 15.0561 88.7364 16.2609 88.7364 17.64C88.7364 19.0033 88.485 20.2001 87.9822 21.2305C87.4794 22.2609 86.7755 23.0614 85.8705 23.6321C84.9655 24.2028 83.9019 24.4881 82.6798 24.4881ZM82.6798 22.3124C83.4765 22.3124 84.134 22.0984 84.6522 21.6704C85.1705 21.2424 85.5534 20.6757 85.8009 19.9703C86.0562 19.2569 86.1838 18.4802 86.1838 17.64C86.1838 16.784 86.0562 15.9993 85.8009 15.286C85.5534 14.5727 85.1705 14.002 84.6522 13.574C84.134 13.146 83.4765 12.932 82.6798 12.932C81.8908 12.932 81.2372 13.146 80.7189 13.574C80.2084 14.002 79.8255 14.5727 79.5703 15.286C79.315 15.9993 79.1874 16.784 79.1874 17.64C79.1874 18.4802 79.315 19.2569 79.5703 19.9703C79.8255 20.6757 80.2084 21.2424 80.7189 21.6704C81.2372 22.0984 81.8908 22.3124 82.6798 22.3124Z" fill="white"/>
<path d="M101.639 24.2147H97.3688V21.8725H101.488C102.803 21.8725 103.897 21.6229 104.771 21.1235C105.645 20.6162 106.299 19.8752 106.732 18.9003C107.165 17.9174 107.382 16.7285 107.382 15.3336C107.382 13.9465 107.165 12.7695 106.732 11.8025C106.307 10.8355 105.669 10.1024 104.818 9.60304C103.967 9.09577 102.911 8.84214 101.65 8.84214H97.276V6.5H101.813C103.507 6.5 104.961 6.85271 106.175 7.55812C107.39 8.26354 108.322 9.27807 108.971 10.6017C109.621 11.9174 109.946 13.4947 109.946 15.3336C109.946 17.1803 109.617 18.7655 108.96 20.0892C108.31 21.4128 107.366 22.4313 106.129 23.1446C104.891 23.858 103.394 24.2147 101.639 24.2147ZM98.6451 6.5V24.2147H96.0345V6.5H98.6451Z" fill="white"/>
<path d="M115.759 24.5C114.939 24.5 114.197 24.3454 113.531 24.0363C112.866 23.7193 112.34 23.2596 111.953 22.6572C111.567 22.0548 111.373 21.3217 111.373 20.4577C111.373 19.7048 111.512 19.0905 111.791 18.6149C112.077 18.1314 112.46 17.747 112.94 17.4617C113.419 17.1764 113.953 16.9624 114.541 16.8197C115.129 16.677 115.732 16.5661 116.351 16.4868C117.132 16.3996 117.762 16.3243 118.242 16.2609C118.722 16.1975 119.07 16.0984 119.286 15.9637C119.511 15.821 119.623 15.5951 119.623 15.286V15.2266C119.623 14.4736 119.414 13.891 118.996 13.4789C118.586 13.0667 117.975 12.8606 117.163 12.8606C116.32 12.8606 115.651 13.0509 115.156 13.4313C114.668 13.8038 114.332 14.2279 114.146 14.7034L111.768 14.1446C112.054 13.3362 112.468 12.6863 113.009 12.1948C113.558 11.6955 114.185 11.3309 114.889 11.1011C115.6 10.8712 116.343 10.7563 117.117 10.7563C117.635 10.7563 118.184 10.8197 118.764 10.9465C119.344 11.0654 119.89 11.2913 120.4 11.6242C120.918 11.9491 121.34 12.4168 121.665 13.0271C121.99 13.6374 122.152 14.426 122.152 15.393V24.2147H119.681V22.3956H119.588C119.433 22.7206 119.19 23.0456 118.857 23.3705C118.532 23.6955 118.114 23.965 117.604 24.179C117.093 24.393 116.478 24.5 115.759 24.5ZM116.304 22.4313C117.008 22.4313 117.608 22.2926 118.103 22.0152C118.598 21.7299 118.977 21.3573 119.24 20.8976C119.503 20.4379 119.634 19.9505 119.634 19.4353V17.7114C119.542 17.7985 119.367 17.8818 119.112 17.961C118.857 18.0403 118.567 18.1077 118.242 18.1631C117.917 18.2186 117.6 18.2701 117.291 18.3177C116.981 18.3573 116.722 18.389 116.513 18.4128C116.026 18.4841 115.581 18.5951 115.179 18.7457C114.777 18.8884 114.452 19.1024 114.204 19.3877C113.965 19.6651 113.845 20.0337 113.845 20.4934C113.845 21.1354 114.077 21.6189 114.541 21.9439C115.005 22.2688 115.593 22.4313 116.304 22.4313Z" fill="white"/>
<path d="M124.577 24.2147V10.9227H127.002V13.0509H127.141C127.381 12.3375 127.799 11.7748 128.394 11.3626C128.998 10.9425 129.678 10.7325 130.436 10.7325C130.591 10.7325 130.773 10.7404 130.982 10.7563C131.198 10.7642 131.372 10.7761 131.504 10.7919V13.2649C131.403 13.2332 131.222 13.2015 130.959 13.1697C130.703 13.138 130.444 13.1222 130.181 13.1222C129.586 13.1222 129.052 13.253 128.58 13.5145C128.116 13.7682 127.749 14.1209 127.478 14.5727C127.215 15.0165 127.083 15.5317 127.083 16.1182V24.2147H124.577Z" fill="white"/>
<path d="M135.043 19.7087L135.008 16.5581H135.46L140.624 10.9227H143.64L137.758 17.3428H137.34L135.043 19.7087ZM132.722 24.2147V6.5H135.228V24.2147H132.722ZM140.89 24.2147L136.249 17.9135L137.99 16.0945L144 24.2147H140.89Z" fill="white"/>
</svg>
