<svg width="40" height="40" viewBox="0 0 40 40" fill="none" xmlns="http://www.w3.org/2000/svg">
<mask id="mask0_312_391" style="mask-type:alpha" maskUnits="userSpaceOnUse" x="0" y="0" width="40" height="40">
<rect width="40" height="40" fill="#D9D9D9"/>
</mask>
<g mask="url(#mask0_312_391)">
<path d="M19.9945 23.7711L22.9528 25.5757C23.2264 25.7488 23.5025 25.739 23.7811 25.5465C24.06 25.3543 24.1632 25.0936 24.0907 24.7645L23.3053 21.3799L25.9466 19.0978C26.2029 18.8692 26.2782 18.6 26.1724 18.2903C26.0666 17.9806 25.8406 17.8118 25.4945 17.784L22.0424 17.4924L20.6803 14.3161C20.5522 14.0147 20.3236 13.864 19.9945 13.864C19.6653 13.864 19.4367 14.0147 19.3086 14.3161L17.9466 17.4924L14.4945 17.784C14.1484 17.8118 13.9224 17.9806 13.8166 18.2903C13.7107 18.6 13.786 18.8692 14.0424 19.0978L16.6836 21.3799L15.8982 24.7645C15.8257 25.0936 15.9289 25.3543 16.2078 25.5465C16.4864 25.739 16.7625 25.7488 17.0361 25.5757L19.9945 23.7711ZM14.7636 32.4986H10.5074C9.67627 32.4986 8.96627 32.2043 8.37738 31.6157C7.78877 31.0268 7.49447 30.3168 7.49447 29.4857V25.2295L4.39822 22.1074C4.11405 21.8063 3.89933 21.4731 3.75405 21.1078C3.60877 20.7422 3.53613 20.3725 3.53613 19.9986C3.53613 19.6247 3.60877 19.255 3.75405 18.8895C3.89933 18.5242 4.11405 18.191 4.39822 17.8899L7.49447 14.7678V10.5115C7.49447 9.68042 7.78877 8.97042 8.37738 8.38153C8.96627 7.79292 9.67627 7.49862 10.5074 7.49862H14.7636L17.8857 4.40237C18.1868 4.1182 18.52 3.90348 18.8853 3.7582C19.2509 3.61292 19.6206 3.54028 19.9945 3.54028C20.3684 3.54028 20.7381 3.61292 21.1036 3.7582C21.4689 3.90348 21.8021 4.1182 22.1032 4.40237L25.2253 7.49862H29.4816C30.3127 7.49862 31.0227 7.79292 31.6116 8.38153C32.2002 8.97042 32.4945 9.68042 32.4945 10.5115V14.7678L35.5907 17.8899C35.8749 18.191 36.0896 18.5242 36.2349 18.8895C36.3802 19.255 36.4528 19.6247 36.4528 19.9986C36.4528 20.3725 36.3802 20.7422 36.2349 21.1078C36.0896 21.4731 35.8749 21.8063 35.5907 22.1074L32.4945 25.2295V29.4857C32.4945 30.3168 32.2002 31.0268 31.6116 31.6157C31.0227 32.2043 30.3127 32.4986 29.4816 32.4986H25.2253L22.1032 35.5949C21.8021 35.879 21.4689 36.0938 21.1036 36.239C20.7381 36.3843 20.3684 36.457 19.9945 36.457C19.6206 36.457 19.2509 36.3843 18.8853 36.239C18.52 36.0938 18.1868 35.879 17.8857 35.5949L14.7636 32.4986ZM15.8278 29.9986L19.6257 33.7965C19.7218 33.8927 19.8447 33.9407 19.9945 33.9407C20.1442 33.9407 20.2671 33.8927 20.3632 33.7965L24.1611 29.9986H29.4816C29.6313 29.9986 29.7542 29.9506 29.8503 29.8545C29.9464 29.7583 29.9945 29.6354 29.9945 29.4857V24.1653L33.7924 20.3674C33.8885 20.2713 33.9366 20.1483 33.9366 19.9986C33.9366 19.8489 33.8885 19.726 33.7924 19.6299L29.9945 15.832V10.5115C29.9945 10.3618 29.9464 10.2389 29.8503 10.1428C29.7542 10.0467 29.6313 9.99862 29.4816 9.99862H24.1611L20.3632 6.2007C20.2671 6.10459 20.1442 6.05653 19.9945 6.05653C19.8447 6.05653 19.7218 6.10459 19.6257 6.2007L15.8278 9.99862H10.5074C10.3577 9.99862 10.2347 10.0467 10.1386 10.1428C10.0425 10.2389 9.99447 10.3618 9.99447 10.5115V15.832L6.19655 19.6299C6.10044 19.726 6.05238 19.8489 6.05238 19.9986C6.05238 20.1483 6.10044 20.2713 6.19655 20.3674L9.99447 24.1653V29.4857C9.99447 29.6354 10.0425 29.7583 10.1386 29.8545C10.2347 29.9506 10.3577 29.9986 10.5074 29.9986H15.8278Z" fill="#FFF600"/>
</g>
</svg>
